<svg xmlns="http://www.w3.org/2000/svg" xmlns:xlink="http://www.w3.org/1999/xlink" viewBox="0,0,255.99431,255.99431" width="64px" height="64px" fill-rule="nonzero"><g fill="none" fill-rule="nonzero" stroke="none" stroke-width="1" stroke-linecap="butt" stroke-linejoin="none" stroke-miterlimit="10" stroke-dasharray="" stroke-dashoffset="0" font-family="none" font-weight="none" font-size="none" text-anchor="none" style="mix-blend-mode: normal"><path transform="scale(4,4)" d="M49.36133,10c3.65436,0 6.63867,2.98432 6.63867,6.63867v22.72266c0,3.65436 -2.98432,6.63867 -6.63867,6.63867h-21.36133c-0.36064,0.0051 -0.69608,-0.18438 -0.87789,-0.49587c-0.18181,-0.3115 -0.18181,-0.69676 0,-1.00825c0.18181,-0.3115 0.51725,-0.50097 0.87789,-0.49587h21.36133c2.57364,0 4.63867,-2.06503 4.63867,-4.63867v-22.72266c0,-2.57364 -2.06503,-4.63867 -4.63867,-4.63867h-34.72266c-2.57364,0 -4.63867,2.06503 -4.63867,4.63867v22.72266c0,2.57348 2.06298,4.63653 4.63477,4.63867l0.47656,-0.01562c0.28662,-0.00903 0.56334,0.10541 0.75985,0.31425c0.19652,0.20885 0.29393,0.492 0.26749,0.77755c-0.27452,2.93576 -1.18253,6.17061 -3.18359,8.60938c4.21718,-0.68511 6.64763,-2.7161 8.0625,-5.07422c1.72569,-2.87616 1.98242,-6.22244 1.98242,-7.61133c-0.0051,-0.36064 0.18438,-0.69608 0.49587,-0.87789c0.3115,-0.18181 0.69676,-0.18181 1.00825,0c0.3115,0.18181 0.50097,0.51725 0.49587,0.87789c0,1.61111 -0.24327,5.26483 -2.26758,8.63867c-2.0243,3.37384 -5.95037,6.36133 -12.73242,6.36133c-0.44426,-0.00085 -0.8347,-0.29467 -0.95854,-0.72132c-0.12384,-0.42665 0.04862,-0.88385 0.42338,-1.12243c2.69738,-1.71301 3.95514,-5.04572 4.43555,-8.30664c-3.29279,-0.38543 -5.90039,-3.09462 -5.90039,-6.48828v-22.72266c0,-3.65436 2.98432,-6.63867 6.63867,-6.63867z" id="strokeMainSVG" fill="#ffffff" stroke="#ffffff" stroke-linejoin="round"></path><g transform="scale(4,4)" fill="#008bff" stroke="none" stroke-linejoin="miter"><path d="M14.63867,10c-3.65436,0 -6.63867,2.98432 -6.63867,6.63867v22.72266c0,3.39366 2.6076,6.10285 5.90039,6.48828c-0.48041,3.26092 -1.73817,6.59363 -4.43555,8.30664c-0.37476,0.23858 -0.54722,0.69578 -0.42338,1.12243c0.12384,0.42665 0.51428,0.72047 0.95854,0.72132c6.78205,0 10.70812,-2.98749 12.73242,-6.36133c2.02431,-3.37384 2.26758,-7.02756 2.26758,-8.63867c0.0051,-0.36064 -0.18438,-0.69608 -0.49587,-0.87789c-0.3115,-0.18181 -0.69676,-0.18181 -1.00825,0c-0.3115,0.18181 -0.50097,0.51725 -0.49587,0.87789c0,1.38889 -0.25673,4.73517 -1.98242,7.61133c-1.41487,2.35812 -3.84532,4.38911 -8.0625,5.07422c2.00107,-2.43876 2.90908,-5.67362 3.18359,-8.60937c0.02644,-0.28555 -0.07098,-0.5687 -0.26749,-0.77755c-0.19652,-0.20885 -0.47323,-0.32328 -0.75985,-0.31425l-0.47656,0.01563c-2.57178,-0.00214 -4.63477,-2.06519 -4.63477,-4.63867v-22.72266c0,-2.57364 2.06503,-4.63867 4.63867,-4.63867h34.72266c2.57364,0 4.63867,2.06503 4.63867,4.63867v22.72266c0,2.57364 -2.06503,4.63867 -4.63867,4.63867h-21.36133c-0.36064,-0.0051 -0.69608,0.18438 -0.87789,0.49587c-0.18181,0.3115 -0.18181,0.69676 0,1.00825c0.18181,0.3115 0.51725,0.50097 0.87789,0.49587h21.36133c3.65436,0 6.63867,-2.98432 6.63867,-6.63867v-22.72266c0,-3.65436 -2.98432,-6.63867 -6.63867,-6.63867z"></path></g></g></svg>